# xmcd
#
# Track frame offsets: 
#        150
#        21469
#        37257
#        59210
#        78543
#        98507
#        120154
#        144956
#        165973
#        185374
#
# Disc length: 2870 seconds
#
# Revision: 0
# Processed by: cddbd v1.5.1PL0 Copyright (c) Steve Scherf et al.
# Submitted via: ExactAudioCopy v0.95a5
#
DISCID=7e0b340a
DTITLE=Blake Powers - Lines
DYEAR=2004
DGENRE=Country
TTITLE0=System
TTITLE1=Lines
TTITLE2=Run Away
TTITLE3=Sirens
TTITLE4=Little Man
TTITLE5=Gray
TTITLE6=Cactus Cafe
TTITLE7=GreyHound
TTITLE8=Father's Face
TTITLE9=Galilee
EXTD=
EXTT0=
EXTT1=
EXTT2=
EXTT3=
EXTT4=
EXTT5=
EXTT6=
EXTT7=
EXTT8=
EXTT9=
PLAYORDER=
